HIERARCHY
ROOT Hips
{
	OFFSET 0.00000 0.00000 0.00000
	CHANNELS 6 Xposition Yposition Zposition Zrotation Yrotation Xrotation 
	JOINT LHipJoint
	{
		OFFSET 0 0 0
		CHANNELS 3 Zrotation Yrotation Xrotation
		JOINT LeftUpLeg
		{
			OFFSET 1.62964 -1.40469 0.78906
			CHANNELS 3 Zrotation Yrotation Xrotation
			JOINT LeftLeg
			{
				OFFSET 2.29640 -6.30932 0.00000
				CHANNELS 3 Zrotation Yrotation Xrotation
				JOINT LeftFoot
				{
					OFFSET 2.29451 -6.30412 0.00000
					CHANNELS 3 Zrotation Yrotation Xrotation
					JOINT LeftToeBase
					{
						OFFSET 0.03611 -0.09921 1.56387
						CHANNELS 3 Zrotation Yrotation Xrotation
						End Site
						{
							OFFSET 0.00000 -0.00000 0.80291
						}
					}
				}
			}
		}
	}
	JOINT RHipJoint
	{
		OFFSET 0 0 0
		CHANNELS 3 Zrotation Yrotation Xrotation
		JOINT RightUpLeg
		{
			OFFSET -1.73712 -1.40469 0.78906
			CHANNELS 3 Zrotation Yrotation Xrotation
			JOINT RightLeg
			{
				OFFSET -2.28137 -6.26801 0.00000
				CHANNELS 3 Zrotation Yrotation Xrotation
				JOINT RightFoot
				{
					OFFSET -2.28681 -6.28298 0.00000
					CHANNELS 3 Zrotation Yrotation Xrotation
					JOINT RightToeBase
					{
						OFFSET -0.15927 -0.43759 1.61103
						CHANNELS 3 Zrotation Yrotation Xrotation
						End Site
						{
							OFFSET -0.00000 -0.00000 0.84630
						}
					}
				}
			}
		}
	}
	JOINT LowerBack
	{
		OFFSET 0 0 0
		CHANNELS 3 Zrotation Yrotation Xrotation
		JOINT Spine
		{
			OFFSET -0.04227 2.04338 -0.00225
			CHANNELS 3 Zrotation Yrotation Xrotation
			JOINT Spine1
			{
				OFFSET -0.02148 2.04482 -0.04273
				CHANNELS 3 Zrotation Yrotation Xrotation
				JOINT Neck
				{
					OFFSET 0 0 0
					CHANNELS 3 Zrotation Yrotation Xrotation
					JOINT Neck1
					{
						OFFSET 0.09180 1.44629 0.19359
						CHANNELS 3 Zrotation Yrotation Xrotation
						JOINT Head
						{
							OFFSET 0.00887 1.40645 0.14750
							CHANNELS 3 Zrotation Yrotation Xrotation
							End Site
							{
								OFFSET -0.00669 1.50671 0.03707
							}
						}
					}
				}
				JOINT LeftShoulder
				{
					OFFSET 0 0 0
					CHANNELS 3 Zrotation Yrotation Xrotation
					JOINT LeftArm
					{
						OFFSET 2.17674 1.86763 -0.06520
						CHANNELS 3 Zrotation Yrotation Xrotation
						JOINT LeftForeArm
						{
							OFFSET 4.65776 -0.00000 0.00000
							CHANNELS 3 Zrotation Yrotation Xrotation
							JOINT LeftHand
							{
								OFFSET 3.55539 -0.00000 0.00000
								CHANNELS 3 Zrotation Yrotation Xrotation
								JOINT LeftFingerBase
								{
									OFFSET 0 0 0
									CHANNELS 3 Zrotation Yrotation Xrotation
									JOINT LeftHandIndex1
									{
										OFFSET 0.70726 -0.00000 0.00000
										CHANNELS 3 Zrotation Yrotation Xrotation
										End Site
										{
											OFFSET 0.57022 -0.00000 0.00000
										}
									}
								}
								JOINT LThumb
								{
									OFFSET 0 0 0
									CHANNELS 3 Zrotation Yrotation Xrotation
									End Site
									{
										OFFSET 0.57892 -0.00000 0.57892
									}
								}
							}
						}
					}
				}
				JOINT RightShoulder
				{
					OFFSET 0 0 0
					CHANNELS 3 Zrotation Yrotation Xrotation
					JOINT RightArm
					{
						OFFSET -2.80694 1.55459 -0.32496
						CHANNELS 3 Zrotation Yrotation Xrotation
						JOINT RightForeArm
						{
							OFFSET -4.71925 -0.00000 -0.00000
							CHANNELS 3 Zrotation Yrotation Xrotation
							JOINT RightHand
							{
								OFFSET -3.56990 -0.00000 0.00000
								CHANNELS 3 Zrotation Yrotation Xrotation
								JOINT RightFingerBase
								{
									OFFSET 0 0 0
									CHANNELS 3 Zrotation Yrotation Xrotation
									JOINT RightHandIndex1
									{
										OFFSET -0.50776 -0.00000 0.00000
										CHANNELS 3 Zrotation Yrotation Xrotation
										End Site
										{
											OFFSET -0.40937 -0.00000 0.00000
										}
									}
								}
								JOINT RThumb
								{
									OFFSET 0 0 0
									CHANNELS 3 Zrotation Yrotation Xrotation
									End Site
									{
										OFFSET -0.41562 -0.00000 0.41562
									}
								}
							}
						}
					}
				}
			}
		}
	}
}
MOTION
Frames: 6
Frame Time: .0083333
10.2691 14.7457 17.7933 -221.0450 82.7471 158.4070 0.0000 0.0000 0.0000 -17.1045 -18.0082 -38.5307 8.7631 16.6528 55.2671 2.0760 -8.1871 -25.8775 3.4601 -11.4051 -33.6585 0.0000 0.0000 0.0000 11.4002 19.2549 -38.3366 -7.9505 -16.0827 52.3843 -4.6335 -0.3758 -41.0747 -2.3765 9.6099 -27.7224 -4.0672 -0.0690 -19.4912 -1.0465 1.0541 -2.3215 1.4699 0.4684 8.3534 -18.9324 -4.3275 6.2243 28.9958 -2.5221 -20.1122 13.8379 -1.7901 -5.9757 0.0000 0.0000 0.0000 -56.2064 20.4713 28.0333 14.6104 -23.6006 -3.0683 -0.0000 0.0000 -4.5177 25.7136 -21.2824 -9.9145 -7.1250 0.0000 -0.0000 -1.8688 6.6092 1.6422 0.0000 0.0000 0.0000 81.9640 2.3963 14.9791 -14.5020 23.4478 -3.0250 0.0000 0.0000 11.4984 -4.6424 -51.7128 3.6470 7.1250 -0.0000 -0.0000 66.3117 -72.5632 -48.7240
10.2206 14.5479 17.8242 -211.4970 81.5878 168.6470 0.0000 0.0000 0.0000 -15.7757 -19.1066 -40.3038 9.4704 17.1011 57.7031 2.0751 -14.5362 -26.3257 0.1303 -2.3264 -6.4085 0.0000 0.0000 0.0000 11.2789 21.0892 -41.7441 -9.5043 -17.1215 57.8184 -4.7879 -3.0100 -42.5740 -2.6721 10.1443 -29.4454 -3.8170 -0.0679 -19.3496 -1.0535 1.0005 -2.4726 1.3042 0.4616 8.1182 -18.6224 -4.7621 6.6287 29.0849 -2.9498 -21.0231 13.9094 -2.0444 -6.2081 0.0000 0.0000 0.0000 -58.0604 19.4479 25.6530 14.3968 -23.2991 -2.9833 -0.0000 0.0000 -2.9098 23.9352 -23.7492 -10.1353 -7.1250 0.0000 -0.0000 -3.2624 4.3098 3.0130 0.0000 0.0000 0.0000 82.5675 2.7209 15.1539 -14.0241 22.7691 -2.8374 0.0000 0.0000 12.4431 -5.4545 -51.7821 4.2903 7.1250 -0.0000 -0.0000 66.0405 -72.8823 -48.8462
10.1623 14.3778 17.8482 -205.3880 80.3002 175.3580 0.0000 0.0000 0.0000 -14.4554 -20.4158 -42.5920 10.3976 17.6274 60.8091 2.4135 -14.0082 -28.2113 0.8953 -6.0306 -16.8731 0.0000 0.0000 0.0000 10.7356 22.5007 -45.7927 -11.3461 -18.1003 63.9006 -4.7732 -4.5636 -43.0551 -2.9000 10.5313 -30.7150 -3.5685 0.1940 -19.0792 -1.2869 1.3061 -2.5630 0.9850 0.6291 7.8691 -17.9469 -5.3661 6.9912 29.0909 -3.5381 -22.0247 13.8734 -2.3929 -6.4332 -0.0000 -0.0000 0.0000 -59.1753 17.9586 25.4612 14.2789 -23.1320 -2.9368 -0.0000 0.0000 -2.5877 23.9552 -23.4409 -10.0230 -7.1250 0.0000 -0.0000 -3.2146 4.6318 2.9493 -0.0000 -0.0000 0.0000 83.5651 3.0812 14.2893 -13.5617 22.1047 -2.6610 0.0000 0.0000 14.1166 -6.0404 -51.7444 4.7500 7.1250 -0.0000 -0.0000 65.5803 -73.0817 -48.6623
10.0902 14.2364 17.8797 -202.7970 78.6218 177.9940 0.0000 0.0000 0.0000 -12.4880 -24.3604 -44.8152 11.5982 18.2156 64.7095 1.1632 -21.7566 -23.0652 2.2409 9.3509 26.8992 0.0000 0.0000 0.0000 10.1531 22.5956 -48.6745 -12.9578 -18.7669 68.9944 -4.5706 -6.3678 -42.8790 -3.6377 11.6620 -34.5466 -3.8050 0.2992 -18.1226 -1.5983 1.4661 -2.3958 0.8092 0.7049 7.5262 -17.3236 -6.0307 7.0458 29.1548 -4.1685 -22.9679 13.8493 -2.7420 -6.5697 0.0000 -0.0000 0.0000 -60.3596 16.2057 25.6602 14.0945 -22.8697 -2.8647 -0.0000 0.0000 -2.6479 24.4497 -22.8627 -10.0179 -7.1250 0.0000 -0.0000 -2.8417 5.1529 2.5782 0.0000 -0.0000 0.0000 84.5734 3.6854 13.3913 -13.2007 21.5806 -2.5266 0.0000 0.0000 15.8683 -6.0387 -52.3703 4.7891 7.1250 -0.0000 -0.0000 67.5408 -73.3004 -50.6671
10.0212 14.1045 17.9165 -201.7860 77.0395 178.9640 0.0000 0.0000 0.0000 -12.4378 -25.8909 -47.5753 12.8119 18.7132 68.5402 2.5720 -7.3377 -28.9740 6.3162 -14.7280 -46.2381 0.0000 0.0000 0.0000 9.5213 21.8821 -51.1786 -14.2133 -19.1774 72.8547 -4.2602 -7.3564 -41.9399 -4.1620 12.3729 -37.0641 -4.2694 0.2200 -17.2269 -1.7706 1.4105 -2.1351 0.8614 0.6629 7.3143 -17.0070 -6.5168 6.9591 29.1624 -4.6085 -23.8168 13.8532 -2.9631 -6.6990 -0.0000 -0.0000 0.0000 -62.0546 14.5473 25.2521 13.7406 -22.3627 -2.7286 -0.0000 0.0000 -2.1997 24.2158 -23.2423 -10.0641 -7.1250 0.0000 -0.0000 -3.0304 4.7936 2.7705 -0.0000 -0.0000 0.0000 84.9780 4.1857 14.3969 -12.9380 21.1962 -2.4308 0.0000 0.0000 16.1040 -6.8140 -52.8726 5.4421 7.1250 -0.0000 -0.0000 68.7635 -73.7457 -52.2831
9.9656 14.0101 17.9694 -201.3700 75.8170 178.3020 0.0000 0.0000 0.0000 -12.5526 -26.5517 -48.5116 13.6755 19.0127 71.2111 2.3617 -3.6002 -28.2025 9.0949 -16.8684 -56.4178 0.0000 0.0000 0.0000 9.4555 21.6825 -51.5289 -15.1128 -19.4174 75.5762 -4.0997 -7.2851 -41.1885 -4.0661 12.2478 -36.6143 -4.8567 0.2751 -15.5331 -1.9917 1.4907 -1.5116 0.9505 0.6720 7.0406 -16.5710 -6.9886 6.8749 29.1436 -5.0247 -24.6040 13.8163 -3.1806 -6.8279 -0.0000 0.0000 0.0000 -63.3777 12.8969 25.6004 13.4245 -21.9061 -2.6095 -0.0000 0.0000 -2.0038 23.8792 -23.6486 -10.0696 -7.1250 0.0000 -0.0000 -3.2853 4.4265 3.0271 -0.0000 0.0000 0.0000 85.2443 4.5366 16.7007 -12.8213 21.0249 -2.3888 0.0000 0.0000 15.0002 -7.6788 -52.0232 6.0667 7.1250 -0.0000 -0.0000 65.5232 -73.7838 -49.3985
